HIERARCHY
ROOT Hips
{
	OFFSET 0.00000 0.00000 0.00000
	CHANNELS 6 Xposition Yposition Zposition Zrotation Yrotation Xrotation 
	JOINT LHipJoint
	{
		OFFSET 0 0 0
		CHANNELS 3 Zrotation Yrotation Xrotation
		JOINT LeftHip
		{
			OFFSET 1.32989 -1.57253 0.78074
			CHANNELS 3 Zrotation Yrotation Xrotation
			JOINT LeftKnee
			{
				OFFSET 2.24323 -6.16323 0.00000
				CHANNELS 3 Zrotation Yrotation Xrotation
				JOINT LeftAnkle
				{
					OFFSET 2.32677 -6.39275 0.00000
					CHANNELS 3 Zrotation Yrotation Xrotation
					JOINT LeftToe
					{
						OFFSET 0.18686 -0.51340 1.95973
						CHANNELS 3 Zrotation Yrotation Xrotation
						End Site
						{
							OFFSET 0.00000 -0.00000 1.02033
						}
					}
				}
			}
		}
	}
	JOINT RHipJoint
	{
		OFFSET 0 0 0
		CHANNELS 3 Zrotation Yrotation Xrotation
		JOINT RightHip
		{
			OFFSET -1.27392 -1.57253 0.78074
			CHANNELS 3 Zrotation Yrotation Xrotation
			JOINT RightKnee
			{
				OFFSET -2.19978 -6.04385 0.00000
				CHANNELS 3 Zrotation Yrotation Xrotation
				JOINT RightAnkle
				{
					OFFSET -2.29380 -6.30216 0.00000
					CHANNELS 3 Zrotation Yrotation Xrotation
					JOINT RightToe
					{
						OFFSET -0.24624 -0.67655 1.94854
						CHANNELS 3 Zrotation Yrotation Xrotation
						End Site
						{
							OFFSET -0.00000 -0.00000 1.03267
						}
					}
				}
			}
		}
	}
	JOINT lowerback
	{
		OFFSET 0 0 0
		CHANNELS 3 Zrotation Yrotation Xrotation
		JOINT Chest
		{
			OFFSET -0.05982 2.08655 0.02100
			CHANNELS 3 Zrotation Yrotation Xrotation
			JOINT Chest2
			{
				OFFSET 0.04735 2.08455 -0.01795
				CHANNELS 3 Zrotation Yrotation Xrotation
				JOINT lowerneck
				{
					OFFSET 0 0 0
					CHANNELS 3 Zrotation Yrotation Xrotation
					JOINT Neck
					{
						OFFSET -0.10038 1.43781 0.03084
						CHANNELS 3 Zrotation Yrotation Xrotation
						JOINT Head
						{
							OFFSET 0.07701 1.43632 -0.18495
							CHANNELS 3 Zrotation Yrotation Xrotation
							End Site
							{
								OFFSET 0.02744 1.45633 -0.07361
							}
						}
					}
				}
				JOINT LeftCollar
				{
					OFFSET 0 0 0
					CHANNELS 3 Zrotation Yrotation Xrotation
					JOINT LeftShoulder
					{
						OFFSET 2.75061 0.74389 0.25227
CHANNELS 3 Zrotation Xrotation Yrotation
						JOINT LeftElbow
						{
OFFSET 0 -4.369010 0.000000
CHANNELS 3 Zrotation Xrotation Yrotation
							JOINT LeftWrist
							{
OFFSET 0 -3.217370 -0.000000
CHANNELS 3 Zrotation Xrotation Yrotation
								JOINT lhand
								{
									OFFSET 0 0 0
CHANNELS 3 Zrotation Xrotation Yrotation
									JOINT LFingers
									{
OFFSET 0 -0.564310 0.000000
CHANNELS 3 Zrotation Xrotation Yrotation
										End Site
										{
OFFSET 0 -0.454960 0.000000
										}
									}
								}
								JOINT LThumb
								{
OFFSET 0 0.000000 0.000000
CHANNELS 3 Zrotation Xrotation Yrotation
									End Site
									{
OFFSET 0 -0.461910 0.461910
									}
								}
							}
						}
					}
				}
				JOINT RightCollar
				{
					OFFSET 0 0 0
					CHANNELS 3 Zrotation Yrotation Xrotation
					JOINT RightShoulder
					{
						OFFSET -2.97379 0.79094 0.48377
CHANNELS 3 Zrotation Xrotation Yrotation
						JOINT RightElbow
						{
OFFSET 0 -4.341180 -0.000000
CHANNELS 3 Zrotation Xrotation Yrotation
							JOINT RightWrist
							{
OFFSET 0 -3.095310 0.000000
CHANNELS 3 Zrotation Xrotation Yrotation
								JOINT rhand
								{
									OFFSET 0 0 0
CHANNELS 3 Zrotation Xrotation Yrotation
									JOINT RFingers
									{
OFFSET 0 -0.597450 0.000000
CHANNELS 3 Zrotation Xrotation Yrotation
										End Site
										{
OFFSET 0 -0.481680 0.000000
										}
									}
								}
								JOINT RThumb
								{
OFFSET 0 0.000000 0.000000
CHANNELS 3 Zrotation Xrotation Yrotation
									End Site
									{
OFFSET 0 -0.489030 0.489030
									}
								}
							}
						}
					}
				}
			}
		}
	}
}
MOTION
Frames: 4
Frame Time: 0.008333333333333333
10.127102 15.261371 1.399365 -184.616110 -133.463710 190.415706 0.000000 0.000000 0.000000 -0.510675 -26.683618 -29.319691 5.213267 13.618887 41.733825 0.491062 -13.706870 -14.768336 1.225197 -7.016922 -19.766975 0.000000 0.000000 0.000000 15.042691 3.733759 11.798880 -0.530377 -4.665223 12.956420 -3.922062 -30.041474 -55.488235 -1.373397 -7.407802 20.933288 6.647324 13.362873 -1.451198 0.035662 17.639975 1.516956 -2.254078 8.926170 4.311573 -5.639184 -5.370611 -7.551168 3.019950 -6.945506 12.123501 1.374410 -3.466142 5.199737 0.000000 0.000000 0.000000 52.966895 28.491566 16.060067 16.400036 -26.059826 3.820097 33.106587 -17.297061 -47.521306 0.000000 0.000000 0.000000 -7.125000 0.000000 0.000000 -24.321357 81.820251 20.738553 0.000000 0.000000 0.000000 -55.781600 -21.742064 -4.771386 -19.811011 -30.414005 -5.435358 -35.764409 -7.416139 -28.307439 0.000000 0.000000 0.000000 7.125000 0.000000 0.000000 -3.007316 -3.560374 -3.197762
10.138987 15.296929 1.384093 -184.627529 -131.028130 190.753295 0.000000 0.000000 0.000000 -0.758699 -25.361660 -28.682703 5.033371 13.420646 40.965295 0.586244 -12.354258 -15.106058 1.333844 -7.312405 -20.644713 0.000000 0.000000 0.000000 14.455612 4.529263 10.411360 -0.573982 -4.850845 13.483760 -4.312988 -29.525125 -56.192061 -1.549809 -7.857128 22.281186 5.916201 12.717214 -1.710189 0.009588 16.778137 1.752687 -1.959410 8.487756 4.413955 -6.638286 -6.398611 -6.838129 4.615299 -8.445005 11.285442 1.939209 -4.152403 4.994132 0.000000 0.000000 0.000000 54.591350 27.590962 15.481324 16.569000 -26.285889 3.894630 33.054002 -17.806595 -47.046774 0.000000 0.000000 0.000000 -7.125000 0.000000 0.000000 -22.434950 81.413549 18.965283 0.000000 0.000000 0.000000 -56.906650 -20.251529 -5.919692 -19.544214 -30.084288 -5.303493 -36.613803 -8.288993 -28.762953 0.000000 0.000000 0.000000 7.125000 0.000000 0.000000 -3.391326 -4.335570 -3.646492
10.148244 15.331081 1.365889 -184.709215 -128.596217 191.113492 0.000000 0.000000 0.000000 -0.987964 -23.945300 -28.037771 4.858485 13.222343 40.207092 0.663340 -11.072097 -15.407363 1.410473 -7.511408 -21.239855 0.000000 0.000000 0.000000 13.882953 5.217838 8.995000 -0.616303 -5.023942 13.977066 -4.558980 -29.267541 -56.690036 -1.621615 -8.028747 22.801644 5.172001 12.058357 -1.960382 0.023047 15.903162 1.997279 -1.614150 8.039260 4.522326 -7.532477 -7.455085 -6.360148 5.917298 -9.950675 10.750203 2.382414 -4.859805 4.944887 0.000000 0.000000 0.000000 56.175050 26.646670 14.987939 16.755867 -26.534682 3.977716 33.198469 -18.491125 -45.669157 0.000000 0.000000 0.000000 -7.125000 0.000000 0.000000 -16.842717 80.337781 13.837338 0.000000 0.000000 0.000000 -57.885483 -19.539615 -8.786487 -18.464089 -28.745413 -4.771288 -35.364472 -5.006921 -28.166722 0.000000 0.000000 0.000000 7.125000 0.000000 0.000000 -2.812677 -3.274351 -2.973087
10.154972 15.363644 1.347323 -184.723674 -126.167918 191.407185 0.000000 0.000000 0.000000 -1.295879 -22.532771 -27.364792 4.686418 13.020787 39.447950 0.724461 -9.802297 -15.675055 1.414527 -7.522103 -21.271663 0.000000 0.000000 0.000000 13.249139 5.864776 7.588977 -0.658986 -5.191184 14.454903 -4.876392 -28.822806 -57.251406 -1.712360 -8.238172 23.440580 4.262336 11.349188 -2.280405 0.129178 14.967610 2.226329 -1.083473 7.550501 4.607203 -8.531268 -8.420405 -5.714245 7.097060 -11.326301 10.255373 2.813982 -5.523690 4.909088 0.000000 0.000000 0.000000 57.593284 25.820351 14.527373 16.993552 -26.848822 4.084585 32.871480 -18.833881 -46.636751 0.000000 0.000000 0.000000 -7.125000 0.000000 0.000000 -21.065487 81.002616 17.629771 0.000000 0.000000 0.000000 -58.922869 -18.081842 -10.118987 -17.883180 -28.005437 -4.495197 -35.529945 -4.609974 -28.110982 0.000000 0.000000 0.000000 7.125000 0.000000 0.000000 -2.919816 -3.263174 -3.085299
